<svg height="512pt" viewBox="-43 0 512 512" width="512pt" xmlns="http://www.w3.org/2000/svg"><path d="m128 234.667969c23.53125 0 42.667969-19.136719 42.667969-42.667969s-19.136719-42.667969-42.667969-42.667969-42.667969 19.136719-42.667969 42.667969 19.136719 42.667969 42.667969 42.667969zm0 0"/><path d="m426.667969 64c0-35.347656-28.652344-64-64-64h-298.667969c-35.347656 0-64 28.652344-64 64v384c0 35.347656 28.652344 64 64 64h298.667969c35.347656 0 64-28.652344 64-64zm-362.667969-21.332031h298.667969c11.773437 0 21.332031 9.554687 21.332031 21.332031v233.367188l-69.546875-69.546876c-14.613281-14.613281-38.316406-14.613281-52.90625 0l-101.546875 101.546876-26.878906-26.882813c-14.613282-14.613281-38.316406-14.613281-52.90625 0l-37.546875 37.546875v-276.03125c0-11.777344 9.554687-21.332031 21.332031-21.332031zm0 0"/></svg>